PathFileType	4	(X/Y/Z)	/Users/niels/Desktop/University/Third Semester/Perception and Action/Exam/Gymnastics Motion Tracking/Code for Gym Tracking/Analyzed Data/Webcam_Backflip/id4_3_pure_Sports2D/id4_3_pure_Sports2D_px_person00.trc
DataRate	CameraRate	NumFrames	NumMarkers	Units	OrigDataRate	OrigDataStartFrame	OrigNumFrames
29.81132075471698	29.81132075471698	11	22	m	29.81132075471698	139	159
Frame#	Time	Hip			RHip			RKnee			RAnkle			RBigToe			RSmallToe			RHeel			LHip			LKnee			LAnkle			LBigToe			LSmallToe			LHeel			Neck			Head			Nose			RShoulder			RElbow			RWrist			LShoulder			LElbow			LWrist		
		X1	Y1	Z1	X2	Y2	Z2	X3	Y3	Z3	X4	Y4	Z4	X5	Y5	Z5	X6	Y6	Z6	X7	Y7	Z7	X8	Y8	Z8	X9	Y9	Z9	X10	Y10	Z10	X11	Y11	Z11	X12	Y12	Z12	X13	Y13	Z13	X14	Y14	Z14	X15	Y15	Z15	X16	Y16	Z16	X17	Y17	Z17	X18	Y18	Z18	X19	Y19	Z19	X20	Y20	Z20	X21	Y21	Z21	X22	Y22	Z22
139	4.662658227848101	0.9070606786195364	-0.5183742837092952	0.0	0.8952789425138603	-0.518492162496625	0.0	0.9108765430795632	-0.6295570658630568	0.0	0.8853079298991566	-0.7388252248522814	0.0	0.9144996099866496	-0.767590244045441	0.0	0.9066441969975212	-0.7696931017364401	0.0	0.8756104231912202	-0.7520276449667823	0.0	0.9233969181432677	-0.5140864455129813	0.0	1.0060184247594177	-0.5657538797982743	0.0	0.9916685484726537	-0.6655463053722049	0.0	1.0258836905071835	-0.6916552021920759	0.0	1.0231187966244317	-0.6877724815816717	0.0	0.980410994103864	-0.6826792236114088	0.0	0.920878547853168	-0.3694312122623364	0.0	0.9499887921171907	-0.29737069987735976	0.0	0.9528247356002586	-0.33576231145990393	0.0	0.9174302254152497	-0.38528110157723894	0.0	0.9420782435441607	-0.448840009145407	0.0	0.9953309168439659	-0.4157506020888692	0.0	0.9035478370264813	-0.38408715697699153	0.0	0.8802852712351834	-0.4400475661711178	0.0	0.9015531517150231	-0.49696347780426575	0.0
140	4.69620253164557	0.9082112633134956	-0.5337628319317356	0.0	0.8958333486566794	-0.5340564128010202	0.0	0.9078756545043549	-0.6446656913776562	0.0	0.8828727535509218	-0.7527171309678716	0.0	0.9092773039042197	-0.7796993123672519	0.0	0.9016702566259742	-0.7820512364629386	0.0	0.8734737232095287	-0.7661753514529649	0.0	0.9256019138026522	-0.5287639457521512	0.0	1.006994766886257	-0.5794961491922104	0.0	0.9894432688998984	-0.6773220617135799	0.0	1.0198282860869	-0.7048332614030831	0.0	1.0178699136929361	-0.7008733276880689	0.0	0.9777560471928429	-0.6942282251535351	0.0	0.9194211872380844	-0.38351612566913357	0.0	0.9478782441765742	-0.3104336729922049	0.0	0.9502394920093041	-0.3492833387415062	0.0	0.9154652487393504	-0.40062384230586834	0.0	0.9393145623737765	-0.46428166001542087	0.0	0.9917986305431084	-0.42866940629687583	0.0	0.9020353487477559	-0.3983782936585626	0.0	0.8741304147161776	-0.45055495004891205	0.0	0.9006666195601774	-0.5042950325144017	0.0
141	4.729746835443038	0.9089129283280316	-0.5509162777676865	0.0	0.8961582029512675	-0.5513950412977289	0.0	0.9064985126789371	-0.6610522032450571	0.0	0.8811157253133071	-0.7675101483396373	0.0	0.9045967467683823	-0.7918459929783603	0.0	0.8970281265617313	-0.7943049542500754	0.0	0.8719324761336393	-0.7810600409961116	0.0	0.9267958512619769	-0.5454309186874683	0.0	1.0069164323650852	-0.5964712080582681	0.0	0.9849928650904053	-0.6917520406128607	0.0	1.0109072035886977	-0.7207789180509376	0.0	1.0098913687275832	-0.7166446560694658	0.0	0.9728655239300043	-0.7081371053654222	0.0	0.9182295917337995	-0.39943302204443865	0.0	0.946282145076462	-0.3258556682075829	0.0	0.9482285024070034	-0.36481418911811614	0.0	0.9133820628708076	-0.4179302693000543	0.0	0.9352883976587247	-0.4823682421488965	0.0	0.9882931925494728	-0.4472104159567969	0.0	0.9014592871829248	-0.4147151480928841	0.0	0.8692684818564493	-0.46390207531779404	0.0	0.9005180445054667	-0.5136502955256583	0.0
142	4.763291139240506	0.9092661758523395	-0.5685145647530305	0.0	0.8963463462647056	-0.5691087307402009	0.0	0.9066702228017863	-0.6776680133185811	0.0	0.8798378782475453	-0.7822306163005126	0.0	0.90070659672419	-0.803451539434416	0.0	0.8930612763919699	-0.8057755387207935	0.0	0.8708589082048999	-0.795469863953072	0.0	0.9270769352317193	-0.5629420614751429	0.0	1.005436896644285	-0.6159505786361325	0.0	0.9788437459985587	-0.7087220743800895	0.0	1.0008032621362883	-0.7392226846568954	0.0	1.0005494390335652	-0.73486185498772	0.0	0.966364325885581	-0.724193400943649	0.0	0.9174597300005063	-0.4161149310334688	0.0	0.9451100905090476	-0.34284474484093175	0.0	0.9469323056872969	-0.38134602923522154	0.0	0.9113820177342927	-0.435888963008481	0.0	0.9299012140926545	-0.5019154566560188	0.0	0.9846708164273075	-0.4707880909990476	0.0	0.9019126630904196	-0.4320899635335042	0.0	0.8667213218877816	-0.47981698695132263	0.0	0.9016734240465433	-0.5253016210618935	0.0
143	4.796835443037974	0.9094444141860523	-0.5851438117926074	0.0	0.8965142890887579	-0.5857094330023557	0.0	0.9080552309163678	-0.6933346376619922	0.0	0.8788806732457397	-0.795905666626162	0.0	0.8981042097506909	-0.8138787582451434	0.0	0.8902725647583039	-0.8158204270846925	0.0	0.8701821270853399	-0.8082542318673225	0.0	0.92673785443151	-0.5799944393229145	0.0	1.0022980924361062	-0.6368994887513452	0.0	0.9715921872818898	-0.727895344803034	0.0	0.9913070667799282	-0.7595895311875398	0.0	0.9913081714778068	-0.7550017933251383	0.0	0.958917272759469	-0.7420459219142642	0.0	0.9172688243598202	-0.4322771330280536	0.0	0.9441355110045486	-0.36017651201479817	0.0	0.9463247821001708	-0.39764268898558863	0.0	0.9096759756945064	-0.45306004912525755	0.0	0.9232134390469428	-0.5213164310100026	0.0	0.9804690726280231	-0.49796232176240196	0.0	0.9034369628057064	-0.4492771475002332	0.0	0.8671523290933726	-0.4974124180293016	0.0	0.9048616648995976	-0.5390645931090097	0.0
144	4.830379746835443	0.9096024980818586	-0.599536715465648	0.0	0.8967395290616474	-0.5999298716446462	0.0	0.910145828237045	-0.7068846568060196	0.0	0.8780946153605242	-0.8076610198942782	0.0	0.8973583813754229	-0.8225536217905577	0.0	0.8890932062396536	-0.823924462851461	0.0	0.8697996810023805	-0.8184643706760544	0.0	0.9260884305810713	-0.595318574910045	0.0	0.9974619803590012	-0.6579465252685955	0.0	0.9638562961905516	-0.7483785408519185	0.0	0.9836574232098042	-0.7804594475702324	0.0	0.9832493112211972	-0.7757492501879893	0.0	0.9511807854987959	-0.7608833050470966	0.0	0.9177207747592517	-0.44658420771845847	0.0	0.9431638968774023	-0.3763420908470912	0.0	0.946280804757328	-0.4123373452059083	0.0	0.9083983366193189	-0.4681064837858302	0.0	0.9155316607440398	-0.5388145095419437	0.0	0.9750773078608493	-0.5264619297384199	0.0	0.9060046288366439	-0.46492147355023894	0.0	0.8706765465840517	-0.5151765399113468	0.0	0.9104240012113262	-0.5540552243762625	0.0
145	4.863924050632911	0.9098715609967893	-0.6107353716869642	0.0	0.8970684910882013	-0.6108909312573596	0.0	0.9124165396843118	-0.71733192702995	0.0	0.8774224460259765	-0.8168050725044377	0.0	0.8990461104122579	-0.8290931261093415	0.0	0.8899261478234161	-0.8297978045070854	0.0	0.8696120403157785	-0.8254991862042391	0.0	0.9254065589293933	-0.6078049527471553	0.0	0.9912575434956762	-0.6773982917078608	0.0	0.9563124330073817	-0.7685294240543189	0.0	0.9783377004913495	-0.7995487377901952	0.0	0.9769536989337924	-0.7949314730652364	0.0	0.9438238344500703	-0.7792412431672089	0.0	0.9187540466840246	-0.4578956316101508	0.0	0.9421841492479328	-0.38983744985593727	0.0	0.9466784136536003	-0.42415345101326973	0.0	0.9076039482399398	-0.4799577035206854	0.0	0.9074445679329486	-0.5528504451300794	0.0	0.9680812924264773	-0.5535422684578223	0.0	0.90949608859264	-0.4777120100870358	0.0	0.8768990482492383	-0.5313086476854391	0.0	0.9177919005437165	-0.5690024805679728	0.0
146	4.897468354430379	0.9104055175940275	-0.6181502882994664	0.0	0.8975862260536416	-0.6180894087303375	0.0	0.9145225501100204	-0.7240017615894172	0.0	0.8769429739807929	-0.8228455704497872	0.0	0.9037439100892807	-0.8332936260832827	0.0	0.8934372569290843	-0.8334011746334008	0.0	0.869569332237664	-0.8292078853756312	0.0	0.9249897747074451	-0.6165838038303595	0.0	0.984435676696007	-0.6933974039920467	0.0	0.9496946355144176	-0.7861598309499751	0.0	0.9752527785714157	-0.8144797760782099	0.0	0.9726262348486906	-0.8101942704341258	0.0	0.937527091281402	-0.7952301200729516	0.0	0.920235791525891	-0.46542865098403374	0.0	0.9413653080405949	-0.3994211561659087	0.0	0.9474447917939186	-0.43211246724091046	0.0	0.9073267859561935	-0.4878660256358987	0.0	0.8997100886688096	-0.5622768205503521	0.0	0.9595489661595946	-0.5765207660405643	0.0	0.9136599047667633	-0.48660058703131037	0.0	0.8849967249671463	-0.5441436132391988	0.0	0.9256279092628338	-0.5822735579005507	0.0
147	4.931012658227848	0.9113615410395531	-0.6215163931775812	0.0	0.898446043774635	-0.6212873690631806	0.0	0.9164153553243515	-0.7265575284696644	0.0	0.8767860226122625	-0.8254274536854804	0.0	0.9115711991392214	-0.8349741501735443	0.0	0.9002652417690378	-0.8347701193006836	0.0	0.8696518100139616	-0.8298075046816527	0.0	0.9251314294725826	-0.6210842152934037	0.0	0.977996716140534	-0.7042754275315499	0.0	0.9446559300287257	-0.7991436203127847	0.0	0.9740454884631001	-0.8237455344677476	0.0	0.9702567087680684	-0.8199477195434395	0.0	0.9328578011033815	-0.8071172466863309	0.0	0.9220261778964116	-0.46875610963100994	0.0	0.9409348855259421	-0.40429017908229953	0.0	0.948525880934134	-0.43564833786673285	0.0	0.9075964593451311	-0.4913863506409201	0.0	0.8930472089949439	-0.5664425652734657	0.0	0.950098457740709	-0.5932930909077644	0.0	0.9180708244969152	-0.49091581745785534	0.0	0.8937684394405206	-0.5523308856733024	0.0	0.9325902262495224	-0.5916822713288048	0.0
148	4.964556962025316	0.9128255627988303	-0.6208139740506715	0.0	0.8998057326615018	-0.6204292041486179	0.0	0.9182783091725228	-0.7249488129389527	0.0	0.8770133946897662	-0.8242797519902272	0.0	0.9211601279990995	-0.83392746500404	0.0	0.9096153954118474	-0.8338010807951616	0.0	0.8697964011970546	-0.827608981587315	0.0	0.9259940721753648	-0.6210796111121155	0.0	0.9728065058298049	-0.709036073560017	0.0	0.9415463129173052	-0.806080354056026	0.0	0.9743696870753619	-0.8270602512009512	0.0	0.9697151532937821	-0.823772605619786	0.0	0.9300748674724958	-0.8138422935245404	0.0	0.9239982933241665	-0.46773932019329917	0.0	0.941059480747946	-0.4041673057191206	0.0	0.9498439718595163	-0.43463871337733423	0.0	0.9084079335011497	-0.4903678365697355	0.0	0.8879842433747909	-0.5652308484703261	0.0	0.9407208201701032	-0.6027478392739457	0.0	0.9222176528742234	-0.4904037379184908	0.0	0.9019818974773237	-0.5550011205650803	0.0	0.9380838969560821	-0.5951265423644868	0.0
149	4.998101265822784	0.91478256888936	-0.616232236600019	0.0	0.9017536689290678	-0.6156611813244802	0.0	0.9203414203458952	-0.7193916265005267	0.0	0.8775870138947331	-0.8192945893314487	0.0	0.9292565943112555	-0.8300990117093089	0.0	0.9182250792258907	-0.8303345371858264	0.0	0.8698975647474221	-0.8228195549639419	0.0	0.9275282238578574	-0.6167165845335082	0.0	0.9691963884837066	-0.7077188419519472	0.0	0.9402740676992734	-0.8066723274747116	0.0	0.9758859457449013	-0.8250589799850557	0.0	0.9706761498846609	-0.8221892211434194	0.0	0.9290514961976604	-0.8151821003665615	0.0	0.9260434010755444	-0.46253402745594574	0.0	0.9417904018696165	-0.39930193400289743	0.0	0.9513013558568998	-0.42937296923317975	0.0	0.9097210175070701	-0.4850022433747957	0.0	0.8848207587277971	-0.5590576441595461	0.0	0.9324576114528899	-0.6049312163133815	0.0	0.9257249731447572	-0.48526851457564224	0.0	0.9089166522168037	-0.5520307534266045	0.0	0.9423527753358033	-0.5916903220237991	0.0
